<?xml version="1.0" encoding="utf-8"?>
<!-- Generator: Adobe Illustrator 15.0.0, SVG Export Plug-In . SVG Version: 6.00 Build 0)  -->
<!DOCTYPE svg PUBLIC "-//W3C//DTD SVG 1.1//EN" "http://www.w3.org/Graphics/SVG/1.1/DTD/svg11.dtd">
<svg version="1.1" id="Layer_1" xmlns="http://www.w3.org/2000/svg" xmlns:xlink="http://www.w3.org/1999/xlink" x="0px" y="0px"
	 width="14px" height="14px" viewBox="0 0 14 14" enable-background="new 0 0 14 14" xml:space="preserve">
<path id="Rectangle-6" fill="#FFFFFF" d="M4,0h6c2.209,0,4,1.791,4,4v6c0,2.209-1.791,4-4,4H4c-2.209,0-4-1.791-4-4V4
	C0,1.791,1.791,0,4,0z"/>
<title>checkbox_checked</title>
<desc>Created with Sketch.</desc>
<path id="Shape" d="M3.089,7.249C3.029,7.19,3,7.102,3,7.042s0.029-0.148,0.089-0.207l0.413-0.414c0.118-0.118,0.295-0.118,0.414,0
	l0.03,0.029L5.57,8.194c0.059,0.06,0.148,0.06,0.207,0l3.958-4.105h0.029l0,0c0.119-0.118,0.296-0.118,0.414,0l0.414,0.413
	c0.117,0.118,0.117,0.295,0,0.414l0,0L5.865,9.819C5.806,9.878,5.747,9.908,5.659,9.908c-0.089,0-0.148-0.03-0.207-0.089
	L3.147,7.338L3.089,7.249L3.089,7.249z"/>
</svg>
