<?xml version="1.0" encoding="UTF-8"?>
<svg width="20px" height="20px" viewBox="0 0 20 20" version="1.1" xmlns="http://www.w3.org/2000/svg" xmlns:xlink="http://www.w3.org/1999/xlink">
    <!-- Generator: Sketch 41.2 (35397) - http://www.bohemiancoding.com/sketch -->
    <title>Info icon</title>
    <desc>Created with Sketch.</desc>
    <defs>
        <polygon id="path-1" points="9.999997 20 0 20 0 0 9.999997 0 19.999994 0 19.999994 20"></polygon>
    </defs>
    <g id="Symbols" stroke="none" stroke-width="1" fill="none" fill-rule="evenodd">
        <g id="2-Schools---Best-vs-Worst-Paid" transform="translate(-453.000000, -90.000000)">
            <g id="Salsa-meritvärde" transform="translate(9.000000, 88.000000)">
                <g id="Info-icon" transform="translate(444.000000, 2.000000)">
                    <mask id="mask-2" fill="white">
                        <use xlink:href="#path-1"></use>
                    </mask>
                    <g id="Clip-2"></g>
                    <path d="M9.999374,6.875 C10.687494,6.875 11.247514,6.31496 11.247514,5.62628 C11.247514,4.93878 10.687494,4.37874 9.999374,4.37874 C9.311254,4.37874 8.751834,4.93878 8.751834,5.62628 C8.751914,6.31504 9.311254,6.875 9.999374,6.875 M9.999374,15.6144 C10.715614,15.6144 11.257514,15.2406 11.257514,14.63688 L11.257514,9.0994 C11.257514,8.49504 10.715654,8.12252 9.999374,8.12252 C9.300614,8.12252 8.741214,8.51062 8.741214,9.0994 L8.741214,14.63688 C8.741294,15.22628 9.300614,15.6144 9.999374,15.6144 M9.999994,1.87504 C14.487454,1.87504 18.124954,5.51252 18.124954,10 C18.124954,14.48746 14.487454,18.12496 9.999994,18.12496 C5.512514,18.12496 1.875034,14.48746 1.875034,10 C1.875034,5.51252 5.512514,1.87504 9.999994,1.87504 M9.999994,20 C15.522514,20 19.999994,15.52252 19.999994,10 C19.999994,4.47686 15.522514,0 9.999994,0 C4.476854,0 -6.00000021e-06,4.47622 -6.00000021e-06,10 C-6.00000021e-06,15.52252 4.476914,20 9.999994,20" id="Fill-1" fill="#7E7E7E" mask="url(#mask-2)"></path>
                </g>
            </g>
        </g>
    </g>
</svg>