<?xml version="1.0" encoding="utf-8"?>
<!-- Generator: Adobe Illustrator 15.0.0, SVG Export Plug-In . SVG Version: 6.00 Build 0)  -->
<!DOCTYPE svg PUBLIC "-//W3C//DTD SVG 1.1//EN" "http://www.w3.org/Graphics/SVG/1.1/DTD/svg11.dtd">
<svg version="1.1" id="Layer_1" xmlns="http://www.w3.org/2000/svg" xmlns:xlink="http://www.w3.org/1999/xlink" x="0px" y="0px"
	 width="36px" height="48px" viewBox="0 0 36 48" enable-background="new 0 0 36 48" xml:space="preserve">
<title>marker_blue</title>
<desc>Created with Sketch.</desc>
<g enable-background="new    ">
	<path fill="#87D37C" d="M32.145,15.2v17.501c0,1.446-0.514,2.684-1.541,3.71c-1.027,1.027-2.264,1.54-3.71,1.54h-17.5
		c-1.447,0-2.683-0.513-3.71-1.54c-1.027-1.026-1.541-2.264-1.541-3.71V15.2c0-1.446,0.513-2.683,1.541-3.71
		c1.027-1.026,2.263-1.54,3.71-1.54h17.5c1.446,0,2.683,0.514,3.71,1.54C31.631,12.518,32.145,13.754,32.145,15.2z M16.63,31.298
		l11.194-11.193c0.23-0.23,0.346-0.504,0.346-0.82s-0.115-0.59-0.346-0.82l-1.86-1.859c-0.231-0.231-0.505-0.347-0.82-0.347
		s-0.589,0.115-0.82,0.347l-8.513,8.513l-3.847-3.846c-0.231-0.231-0.504-0.347-0.82-0.347c-0.316,0-0.59,0.115-0.82,0.347
		l-1.86,1.859c-0.231,0.23-0.346,0.504-0.346,0.82c0,0.315,0.115,0.589,0.346,0.82l6.527,6.526c0.23,0.23,0.504,0.346,0.82,0.346
		C16.126,31.644,16.399,31.528,16.63,31.298z"/>
</g>
</svg>
