<?xml version="1.0" encoding="utf-8"?>
<!-- Generator: Adobe Illustrator 15.0.0, SVG Export Plug-In . SVG Version: 6.00 Build 0)  -->
<!DOCTYPE svg PUBLIC "-//W3C//DTD SVG 1.1//EN" "http://www.w3.org/Graphics/SVG/1.1/DTD/svg11.dtd">
<svg version="1.1" id="Layer_1" xmlns="http://www.w3.org/2000/svg" xmlns:xlink="http://www.w3.org/1999/xlink" x="0px" y="0px"
	 width="36px" height="48px" viewBox="0 0 36 48" enable-background="new 0 0 36 48" xml:space="preserve">
<filter  width="200%" height="200%" id="filter-2" y="-50%" x="-50%" filterUnits="objectBoundingBox">
	<feOffset  result="shadowOffsetOuter1" dx="0" in="SourceAlpha" dy="2"></feOffset>
	<feGaussianBlur  result="shadowBlurOuter1" in="shadowOffsetOuter1" stdDeviation="2"></feGaussianBlur>
	<feColorMatrix  type="matrix" values="0 0 0 0 0   0 0 0 0 0   0 0 0 0 0  0 0 0 0.100741621 0" in="shadowBlurOuter1">
		</feColorMatrix>
</filter>
<title>marker_blue</title>
<desc>Created with Sketch.</desc>
<g id="Free---Desktop">
	<g id="Desktop-HD---Start-Map---PAID-" transform="translate(-683.000000, -511.000000)">
		<g id="Pointer-Skolor" transform="translate(364.000000, 458.000000)">
			<g id="marker_blue" transform="translate(323.000000, 55.000000)">
				<g id="Shape">
					<g filter="url(#filter-2)">
						<path fill="#939598" d="M23.899,4.1L23.899,4.1c-5.467-5.467-14.331-5.467-19.799,0l0,0C-0.826,9.026-1.38,18.302,2.8,23.876
							L14,40.051l11.199-16.175C29.381,18.302,28.826,9.026,23.899,4.1L23.899,4.1z M14.136,18.484
							c-2.552,0-4.621-2.068-4.621-4.621c0-2.552,2.069-4.621,4.621-4.621c2.553,0,4.622,2.069,4.622,4.621
							C18.758,16.416,16.689,18.484,14.136,18.484L14.136,18.484z"/>
					</g>
					<g>
						<path id="path-1_1_" fill="#939598" d="M23.899,4.1L23.899,4.1c-5.467-5.467-14.331-5.467-19.799,0l0,0
							C-0.826,9.026-1.38,18.302,2.8,23.876L14,40.051l11.199-16.175C29.381,18.302,28.826,9.026,23.899,4.1L23.899,4.1z
							 M14.136,18.484c-2.552,0-4.621-2.068-4.621-4.621c0-2.552,2.069-4.621,4.621-4.621c2.553,0,4.622,2.069,4.622,4.621
							C18.758,16.416,16.689,18.484,14.136,18.484L14.136,18.484z"/>
					</g>
				</g>
			</g>
		</g>
	</g>
</g>
</svg>
