<?xml version="1.0" encoding="UTF-8"?>
<svg width="21px" height="20px" viewBox="0 0 21 20" version="1.1" xmlns="http://www.w3.org/2000/svg" xmlns:xlink="http://www.w3.org/1999/xlink">
    <!-- Generator: Sketch 41.2 (35397) - http://www.bohemiancoding.com/sketch -->
    <title>Warning Icon</title>
    <desc>Created with Sketch.</desc>
    <defs>
        <polygon id="path-1" points="20.998635 7.81662585e-06 20.998635 19.0465116 0 19.0465116 0 7.81662584e-06 20.998635 7.81662584e-06"></polygon>
    </defs>
    <g id="Symbols" stroke="none" stroke-width="1" fill="none" fill-rule="evenodd">
        <g id="2-Schools---Best-vs-Worst-Paid" transform="translate(-450.000000, -227.000000)">
            <g id="Salsa-meritvärde" transform="translate(9.000000, 88.000000)">
                <g id="Warning-Icon" transform="translate(441.000000, 139.000000)">
                    <path d="M10.4990524,13.3844188 C9.91199738,13.3844188 9.41991488,13.8726453 9.41991488,14.4551663 C9.41991488,15.0376352 9.91199738,15.5258877 10.4990524,15.5258877 C11.0645299,15.5258877 11.5781899,15.0376352 11.5522811,14.480857 C11.5781899,13.8683722 11.0904124,13.3844188 10.4990524,13.3844188" id="Fill-1" fill="#DF1B32"></path>
                    <g id="Group-5">
                        <mask id="mask-2" fill="white">
                            <use xlink:href="#path-1"></use>
                        </mask>
                        <g id="Clip-4"></g>
                        <path d="M19.0200229,16.339674 C18.6444379,16.9821225 17.9797091,17.3633133 17.2372541,17.3633133 L3.73493662,17.3633133 C3.00111787,17.3633133 2.34069412,16.9906947 1.97377162,16.3610916 C1.60254412,15.7229162 1.59823912,14.9605607 1.96946662,14.3181122 L8.73787162,2.69400791 C9.10479412,2.05585858 9.76091287,1.67894088 10.5033941,1.67894088 C11.2415179,1.67894088 11.9019416,2.06013167 12.2688641,2.69830706 L19.0329379,14.3223853 C19.3955816,14.9476893 19.3912504,15.7015247 19.0200229,16.339674 M20.4876604,17.1791275 C21.1653829,16.0184368 21.1696879,14.6350243 20.4962966,13.4786066 L13.7365016,1.86312664 C13.0674416,0.693863637 11.8587866,7.81662584e-06 10.5033679,7.81662584e-06 C9.14794912,7.81662584e-06 7.93929412,0.698136726 7.27023412,1.8588275 L0.501829125,13.4871788 C-0.171562125,14.6564418 -0.167257125,16.0484265 0.514770375,17.2091173 C1.18816162,18.3569628 2.39248537,19.0465194 3.73926787,19.0465194 L17.2415854,19.0465194 C18.5926991,19.0465455 19.8056329,18.3483905 20.4876604,17.1791275" id="Fill-3" fill="#DF1B32" mask="url(#mask-2)"></path>
                    </g>
                    <path d="M10.2314126,5.86773518 C9.71775262,6.01333286 9.39831637,6.47592078 9.39831637,7.03697213 C9.42422512,7.37535386 9.44580262,7.71798263 9.47171137,8.0563383 C9.54508012,9.3455344 9.61847512,10.6090138 9.69184387,11.8981838 C9.71775262,12.3350811 10.0587401,12.6520192 10.4990576,12.6520192 C10.9393489,12.6520192 11.2846939,12.3136636 11.3062714,11.8725193 C11.3062714,11.6069624 11.3062714,11.3627971 11.3321539,11.0929932 C11.3796401,10.266359 11.4314314,9.4397508 11.4789176,8.61314262 C11.5048001,8.07775586 11.5522864,7.5423691 11.5781951,7.0070084 C11.5781951,6.81427646 11.5522864,6.64296207 11.4789176,6.47164769 C11.2587589,5.99194136 10.7450989,5.74780208 10.2314126,5.86773518" id="Fill-6" fill="#DF1B32"></path>
                </g>
            </g>
        </g>
    </g>
</svg>